# xmcd
# 
# Track frame offsets:
#     150
#     20335
#     37125
#     52963
#     71088
#     93238
#     104908
#     120265
#     140533
#     159243
#     176598
#     196623
#     214430
#     232953
#     252838
#     270253
#     285470
#     303430
#     320338
# 
# Disc length: 4513
# 
# Revision: 3
# Processed by: cddbd v1.5.2PL0 Copyright (c) Steve Scherf et al.
# Submitted via: fre:ac v1.0.17
# 
DISCID=05119f13
DTITLE=Boy George and Culture Club - at Worst... the Best of
DYEAR=1993
DGENRE=Virgin Records
TTITLE0=Do you really want to hurt me
TTITLE1=Time (Clock of the heart)
TTITLE2=Church of the poison mind
TTITLE3=karma chameleon
TTITLE4=Victims
TTITLE5=I'll tumble 4 ya
TTITLE6=It's a miracle
TTITLE7=Miss me blind
TTITLE8=Move away
TTITLE9=Love is Love
TTITLE10=Love Hurts
TTITLE11=Everything I own
TTITLE12=Don't cry
TTITLE13=After the Love
TTITLE14=More than likely (Guest vocals: Boy George)
TTITLE15=The crying game
TTITLE16=Generations of love (La La Gone Gaga Mix)
TTITLE17=Bow down Mister (A small portion 2B Polite Mix)
TTITLE18=Sweet toxic love (Deliverance Mix)
EXTD=YEAR: 1993
EXTT0=
EXTT1=
EXTT2=
EXTT3=
EXTT4=
EXTT5=
EXTT6=
EXTT7=
EXTT8=
EXTT9=
EXTT10=
EXTT11=
EXTT12=
EXTT13=
EXTT14=
EXTT15=
EXTT16=
EXTT17=
EXTT18=
PLAYORDER=
